<mxfile host="app.diagrams.net" modified="2023-10-16T05:52:57.337Z" agent="Mozilla/5.0 (Windows NT 10.0; Win64; x64) AppleWebKit/537.36 (KHTML, like Gecko) Chrome/104.0.0.0 Safari/537.36" etag="isQCz3E6-wRqUcdHy0BU" version="22.0.4" type="github">
  <diagram name="Page-1" id="Mr5n_VzZrHSlxhFBCaBu">
    <mxGraphModel dx="1434" dy="764" grid="1" gridSize="10" guides="1" tooltips="1" connect="1" arrows="1" fold="1" page="1" pageScale="1" pageWidth="850" pageHeight="1100" math="0" shadow="0">
      <root>
        <mxCell id="0" />
        <mxCell id="1" parent="0" />
        <mxCell id="62sjdaFhIMwfMPhXAav_-1" value="&lt;font style=&quot;font-size: 18px;&quot;&gt;葛根芩连汤&lt;/font&gt;" style="rounded=1;whiteSpace=wrap;html=1;" vertex="1" parent="1">
          <mxGeometry x="370" y="110" width="120" height="60" as="geometry" />
        </mxCell>
      </root>
    </mxGraphModel>
  </diagram>
</mxfile>
